PathFileType	4	(x/y/z)	S05_P20_T18
DataRate	CameraRate	NumFrames	NumMarkers	Units	OrigDataRate	OrigDataStartFrame	OrigNumFrames
240	240	5	50	mm	240	220	351
Frame#	Time	Sternum			R.Acromium			L.Acromium			Top.Head			R.ASIS			L.ASIS			R.PSIS			L.PSIS			R.Great.Tro			L.Great.Tro			R.Iliac.Crest			L.Iliac.Crest			V.Sacral			R.Thigh.Upper.Post			R.Thigh.Lower.Ant			R.Thigh.Lower.Post			R.Thigh.Upper.Ant			R.Knee.Lat			R.Knee.Med			R.Shank.Upper.Post			R.Shank.Lower.Ant			R.Shank.Lower.Post			R.Shank.Upper.Ant			R.Ankle.Lat			R.Ankle.Med			R.Heel.Upper			R.Heel.Med			R.Heel.Lat			R.Toe.Lat			R.Toe.Med			R.Toe.Tip			L.Thigh.Upper.Post			L.Thigh.Lower.Ant			L.Thigh.Lower.Post			L.Thigh.Upper.Ant			L.Knee.Lat			L.Shank.Upper.Post			L.Shank.Lower.Ant			L.Shank.Lower.Post			L.Shank.Upper.Ant			L.Ankle.Lat			L.Ankle.Med			L.Heel.Upper			L.Heel.Med			L.Heel.Lat			L.Toe.Lat			L.Toe.Med			L.Toe.Tip			Cervical.Spine			Back			
		X1	Y1	Z1	X2	Y2	Z2	X3	Y3	Z3	X4	Y4	Z4	X5	Y5	Z5	X6	Y6	Z6	X7	Y7	Z7	X8	Y8	Z8	X9	Y9	Z9	X10	Y10	Z10	X11	Y11	Z11	X12	Y12	Z12	X13	Y13	Z13	X14	Y14	Z14	X15	Y15	Z15	X16	Y16	Z16	X17	Y17	Z17	X18	Y18	Z18	X19	Y19	Z19	X20	Y20	Z20	X21	Y21	Z21	X22	Y22	Z22	X23	Y23	Z23	X24	Y24	Z24	X25	Y25	Z25	X26	Y26	Z26	X27	Y27	Z27	X28	Y28	Z28	X29	Y29	Z29	X30	Y30	Z30	X31	Y31	Z31	X32	Y32	Z32	X33	Y33	Z33	X34	Y34	Z34	X35	Y35	Z35	X36	Y36	Z36	X37	Y37	Z37	X38	Y38	Z38	X39	Y39	Z39	X40	Y40	Z40	X41	Y41	Z41	X42	Y42	Z42	X43	Y43	Z43	X44	Y44	Z44	X45	Y45	Z45	X46	Y46	Z46	X47	Y47	Z47	X48	Y48	Z48	X49	Y49	Z49	X50	Y50	Z50	

220	0.9125	-171.61	1250.8	321.88	-249.68	1519.5	480.94	-271.9	1535.2	160.88	-261.16	1817.3	308.96	-259.07	998.87	454.34	-237.35	1004.5	204.71	-450.31	1027	349.13	-441.59	1021.8	258.2	-354.75	928.01	506.57	-307.35	922.21	119.14	-340.7	1089.2	483.36	-323.82	1080.2	149.49	-460.93	991.26	316.81	-342.28	699.03	488.92	-302.48	618.87	439.03	-370.97	616.4	465.34	-276.23	700.67	465.96	-405.81	523.4	443.38	-395.62	512.49	309.46	-544.7	309.16	420.26	-500.94	230.58	420.1	-561.85	236.72	400.01	-481.99	304.41	437.99	-540.57	131.71	398.55	-522.1	157.97	310.99	-617.44	89.8	332.21	-609.49	56.758	305.96	-614.82	62.39	370.28	-456.17	35.218	436.51	-412.4	37.997	318.21	-351.05	47.955	367.02	-231.41	690.31	123.39	-134.25	647.79	154.98	-192	605.29	142.34	-166.19	731.75	138.36	-144.6	531.37	155.5	-138.27	323.07	157.35	-54.348	291.83	159.24	-114.27	255.29	176.93	-81.514	356.77	146.68	-35.502	133.59	184.42	-3.6919	164.31	265.91	-67.901	66.856	242.6	-44.051	51.027	274.05	-57.387	41.173	214.76	107.7	99.793	143.18	134.13	127.16	257.54	182.84	159.26	197.31	-308.57	1559.4	329.39	-433.37	1289.6	328.21
221	0.91667	-165.87	1249.8	321.71	-244.02	1518.7	480.47	-266.05	1534.1	160.31	-255.64	1816.4	308.17	-253.4	998.09	454.32	-231.23	1003.5	204.66	-444.44	1026.2	348.61	-435.58	1020.9	257.71	-349.32	927.44	506.46	-301.05	921.15	119.04	-335.13	1088.4	483.13	-317.7	1079.1	149.2	-455.01	990.37	316.34	-337.57	698.49	489.05	-297.92	618.08	439.33	-366.44	615.9	465.56	-271.39	699.85	466.31	-401.8	522.99	443.62	-391.46	511.97	309.74	-542.48	309.87	420.44	-499.39	230.92	420.28	-560.24	237.58	400.17	-479.82	304.59	438.2	-539.87	132.31	398.69	-521.12	158.53	311.1	-617.05	90.925	332.34	-609.3	57.87	306.02	-614.58	63.413	370.37	-456.11	35.144	436.58	-412.29	37.978	318.28	-350.95	47.722	367.07	-225.83	689.1	123.52	-128.96	646.3	155.68	-186.78	603.97	142.68	-160.57	730.35	138.83	-139.34	530.12	155.9	-131.62	321.74	157.35	-47.464	291.1	159.55	-107.2	254.09	176.97	-75.045	355.87	147	-27.316	132.9	184.6	3.866	163.79	266.26	-59.534	65.822	242.43	-35.607	50.141	274.02	-48.564	40.274	214.68	116.4	100.39	143.94	142.03	127.83	258.45	190.78	160.45	198.55	-302.84	1558.5	328.84	-427.64	1288.7	327.83
222	0.92083	-160.12	1248.8	321.52	-238.35	1517.9	479.97	-260.22	1532.9	159.73	-250.09	1815.5	307.35	-247.71	997.33	454.29	-225.1	1002.6	204.6	-438.57	1025.3	348.1	-429.56	1019.9	257.21	-343.87	926.86	506.34	-294.75	920.12	118.92	-329.56	1087.7	482.9	-311.57	1078.1	148.89	-449.08	989.48	315.85	-332.76	697.96	489.2	-293.23	617.31	439.66	-361.79	615.38	465.79	-266.47	699.06	466.67	-397.63	522.55	443.88	-387.12	511.42	310.06	-540.14	310.6	420.64	-497.76	231.29	420.48	-558.53	238.48	400.34	-477.54	304.78	438.44	-539.13	132.96	398.83	-520.07	159.14	311.24	-616.63	92.152	332.49	-609.08	59.083	306.09	-614.31	64.529	370.46	-456.04	35.074	436.64	-412.18	37.963	318.35	-350.85	47.489	367.11	-220.13	687.99	123.69	-123.51	644.95	156.37	-181.4	602.77	143.04	-154.83	729.08	139.29	-133.99	528.94	156.28	-125.22	320.47	157.4	-40.903	290.3	159.91	-100.5	252.93	177.06	-68.783	354.93	147.35	-19.749	132.16	184.82	10.861	163.16	266.67	-51.892	64.828	242.33	-27.922	49.251	274.06	-40.516	39.4	214.66	124.4	100.7	144.77	149.28	128.17	259.41	198.1	161.22	199.84	-297.09	1557.6	328.27	-421.9	1287.8	327.43
223	0.925	-154.35	1247.8	321.3	-232.68	1517.2	479.46	-254.38	1531.9	159.12	-244.52	1814.6	306.53	-241.99	996.58	454.24	-218.97	1001.7	204.53	-432.68	1024.4	347.58	-423.54	1019	256.71	-338.39	926.29	506.2	-288.43	919.13	118.8	-323.96	1087	482.65	-305.44	1077.1	148.58	-443.14	988.6	315.36	-327.86	697.43	489.35	-288.39	616.54	440.01	-357	614.85	466.02	-261.44	698.29	467.04	-393.29	522.09	444.16	-382.58	510.82	310.41	-537.67	311.38	420.86	-496.04	231.69	420.7	-556.72	239.44	400.52	-475.15	304.98	438.69	-538.33	133.67	399	-518.96	159.79	311.39	-616.16	93.492	332.64	-608.83	60.406	306.17	-614	65.747	370.57	-455.97	35.007	436.7	-412.07	37.952	318.42	-350.75	47.258	367.15	-214.32	686.99	123.9	-117.93	643.72	157.05	-175.87	601.68	143.43	-148.97	727.91	139.74	-128.55	527.81	156.66	-119.07	319.28	157.49	-34.659	289.42	160.3	-94.182	251.81	177.18	-62.721	353.96	147.73	-12.791	131.36	185.09	17.308	162.41	267.13	-44.963	63.871	242.28	-20.985	48.349	274.16	-33.23	38.545	214.7	131.72	100.72	145.65	155.88	128.16	260.43	204.82	161.56	201.18	-291.34	1556.7	327.68	-416.14	1287	327.01
224	0.92917	-148.57	1246.8	321.06	-226.99	1516.4	478.93	-248.55	1530.8	158.49	-238.93	1813.7	305.68	-236.24	995.86	454.19	-212.83	1000.8	204.46	-426.78	1023.6	347.06	-417.51	1018.1	256.2	-332.89	925.72	506.05	-282.11	918.19	118.66	-318.34	1086.3	482.4	-299.3	1076.1	148.26	-437.18	987.74	314.86	-322.84	696.89	489.5	-283.42	615.8	440.39	-352.07	614.31	466.27	-256.32	697.56	467.41	-388.77	521.61	444.48	-377.84	510.18	310.81	-535.08	312.2	421.1	-494.22	232.12	420.93	-554.8	240.45	400.71	-472.64	305.2	438.97	-537.46	134.45	399.18	-517.76	160.49	311.57	-615.63	94.952	332.82	-608.54	61.85	306.26	-613.65	67.077	370.69	-455.91	34.946	436.76	-411.97	37.945	318.49	-350.66	47.027	367.18	-208.4	686.07	124.15	-112.22	642.61	157.7	-170.21	600.69	143.85	-143.01	726.86	140.17	-123.03	526.75	157.02	-113.16	318.14	157.61	-28.718	288.47	160.73	-88.218	250.71	177.33	-56.852	352.95	148.14	-6.422	130.5	185.39	23.227	161.53	267.62	-38.723	62.951	242.28	-14.777	47.435	274.31	-26.691	37.707	214.79	138.37	100.43	146.58	161.87	127.8	261.49	210.98	161.46	202.57	-285.59	1555.9	327.07	-410.37	1286.1	326.58
